<svg xmlns="http://www.w3.org/2000/svg" width="115" height="31" viewBox="0 0 791.703 511.256">
  <g id="Сгруппировать_5" data-name="Сгруппировать 5" transform="translate(-3.968 -2.976)">
    <g id="Сгруппировать_1" data-name="Сгруппировать 1">
      <path id="Контур_1" data-name="Контур 1" d="M546.6,83.454v-21.1h-8.768v-1.8h20.513v1.8h-8.768v21.1Z" stroke="#201600" stroke-miterlimit="10" stroke-width="0.1"/>
      <path id="Контур_2" data-name="Контур 2" d="M565.9,83.454h-2.977v-22.9H565.9V70.564h13.708V60.553h2.977v22.9h-2.977V72.069H565.9Z" stroke="#201600" stroke-miterlimit="10" stroke-width="0.1"/>
      <path id="Контур_3" data-name="Контур 3" d="M605.227,60.553v1.8h-11.81v8.212h10.142v1.5H593.417v9.586h11.81v1.8H590.44v-22.9Z" stroke="#201600" stroke-miterlimit="10" stroke-width="0.1"/>
    </g>
    <g id="Сгруппировать_2" data-name="Сгруппировать 2">
      <path id="Контур_4" data-name="Контур 4" d="M47.823,5.264q12.772,0,21.165,3.528a37.731,37.731,0,0,1,13.253,8.771A30.784,30.784,0,0,1,89.1,28.909a36.305,36.305,0,0,1,2,11.251,39.048,39.048,0,0,1-1.89,11.726A33.336,33.336,0,0,1,72.479,71.621a38.712,38.712,0,0,1-15.695,4v.763l1.907.953A13.833,13.833,0,0,1,62.6,80.2a46.639,46.639,0,0,1,4.193,5.53Q69.37,89.548,73.725,96.5T86.009,115.1q2.64,4,5.11,7.151a33.784,33.784,0,0,0,5.137,5.339,18.86,18.86,0,0,0,12.775,4.481,18.493,18.493,0,0,0,1.907-.1,19.178,19.178,0,0,0,1.907-.286v7.056a15.139,15.139,0,0,1-5.34,1.907,50.491,50.491,0,0,1-6.864.38,28.037,28.037,0,0,1-9.8-1.525,26.272,26.272,0,0,1-7.288-4.1,34.65,34.65,0,0,1-5.947-6.2q-2.739-3.621-5.568-8.009L56.918,98.889q-3.45-5.335-5.935-8.963a27.233,27.233,0,0,0-5.359-5.911,17.484,17.484,0,0,0-6.412-3.24,34.885,34.885,0,0,0-8.9-.955H21.89v58.922H4.538V5.264ZM21.89,71.241H41.6A32.118,32.118,0,0,0,55.1,68.571a31,31,0,0,0,9.859-6.96,29.5,29.5,0,0,0,8.038-19.926,28.351,28.351,0,0,0-2.2-11.251,24.6,24.6,0,0,0-6.411-8.867,30.687,30.687,0,0,0-10.05-5.815,38.584,38.584,0,0,0-13.109-2.1H21.89Z"/>
      <path id="Контур_5" data-name="Контур 5" d="M223.071,5.264V15.752H154.235V63.613h59.112v8.771H154.235v55.869h68.836v10.489H136.883V5.264Z"/>
      <path id="Контур_6" data-name="Контур 6" d="M264.622,99.462l-16.779,39.28h-8.771L295.513,5.264h9.534l62.162,133.478h-18.5l-18.306-39.28Zm31.844-72.841H295.7l-27.459,64.26H326.4Z"/>
      <path id="Контур_7" data-name="Контур 7" d="M392.95,104.99a37.49,37.49,0,0,0,1.526,7.914,23.787,23.787,0,0,0,5.148,9.058,30.413,30.413,0,0,0,11.059,7.532q7.246,3.146,19.259,3.146,15.062,0,24.122-5.72t9.057-18.115q0-9.914-5.72-15.827a48.846,48.846,0,0,0-14.4-10.011,154.759,154.759,0,0,0-18.783-7.341,116.115,116.115,0,0,1-18.782-7.818,46.979,46.979,0,0,1-14.4-11.441q-5.719-6.864-5.72-18.115A31.535,31.535,0,0,1,398.4,11.937a44.272,44.272,0,0,1,13.94-6.673,59.961,59.961,0,0,1,16.711-2.288,64.111,64.111,0,0,1,16.135,2,47.79,47.79,0,0,1,13.844,5.911,36.338,36.338,0,0,1,10.121,9.535,29.788,29.788,0,0,1,5.158,12.68h-12.99q-1.53-11.249-10.22-16.5T430,11.366a43.754,43.754,0,0,0-13.182,1.812,31.864,31.864,0,0,0-9.646,4.766,19.814,19.814,0,0,0-5.92,6.96,18.888,18.888,0,0,0-2.006,8.581,16.29,16.29,0,0,0,5.923,13.156,59.436,59.436,0,0,0,14.814,8.773q8.889,3.816,19.307,7.246a106.342,106.342,0,0,1,19.3,8.485A50.133,50.133,0,0,1,473.4,83.729q5.926,7.536,5.926,19.355a35.206,35.206,0,0,1-3.438,15.636,34.174,34.174,0,0,1-9.745,12.013,45.415,45.415,0,0,1-15.19,7.627,69.306,69.306,0,0,1-19.962,2.669,74.034,74.034,0,0,1-20.06-2.574,53.186,53.186,0,0,1-15.954-7.246,35.5,35.5,0,0,1-10.7-11.345,31.823,31.823,0,0,1-4.3-14.874Z"/>
      <path id="Контур_8" data-name="Контур 8" d="M505.738,48.931A66.748,66.748,0,0,1,518.61,26.525,69.441,69.441,0,0,1,540.92,9.649q13.536-6.671,32.415-6.673,19.065,0,33.084,6.769a73,73,0,0,1,23.167,17.066,68.934,68.934,0,0,1,13.539,22.406A67.08,67.08,0,0,1,647.51,72a59.954,59.954,0,0,1-2,14.873,76.381,76.381,0,0,1-5.911,15.54A70.714,70.714,0,0,1,629.586,117.1a67.706,67.706,0,0,1-14.4,12.3,73.87,73.87,0,0,1-18.687,8.485,79.79,79.79,0,0,1-23.168,3.146q-18.878,0-32.415-6.769a69.774,69.774,0,0,1-22.31-17.066,67.949,67.949,0,0,1-12.872-22.4A71.167,71.167,0,0,1,501.639,72,72.513,72.513,0,0,1,505.738,48.931ZM524.425,96.5a58.923,58.923,0,0,0,11.251,19.164,51,51,0,0,0,16.875,12.49,49.966,49.966,0,0,0,21.166,4.481,51.458,51.458,0,0,0,21.261-4.481,54.353,54.353,0,0,0,17.542-12.49A59.315,59.315,0,0,0,624.438,96.5,66.414,66.414,0,0,0,628.823,72a66.427,66.427,0,0,0-4.385-24.5A59.337,59.337,0,0,0,612.52,28.336a54.4,54.4,0,0,0-17.542-12.49,51.505,51.505,0,0,0-21.261-4.48,50.011,50.011,0,0,0-21.166,4.48,51.041,51.041,0,0,0-16.875,12.49A58.944,58.944,0,0,0,524.425,47.5a70.524,70.524,0,0,0-4.1,24.5A70.51,70.51,0,0,0,524.425,96.5Z"/>
      <path id="Контур_9" data-name="Контур 9" d="M795.1,5.264V141.029h-.955L688.318,36.727h-.762V138.742h-8.771V2.976h.953l105.829,104.3h.762V5.264Z"/>
    </g>
    <g id="Сгруппировать_3" data-name="Сгруппировать 3">
      <path id="Контур_10" data-name="Контур 10" d="M258.813,272.051V210.557H233.262v-5.244H293.04v5.244H267.489v61.494Z" stroke="#201600" stroke-miterlimit="10" stroke-width="0.1"/>
      <path id="Контур_11" data-name="Контур 11" d="M301.763,227.146a33.362,33.362,0,0,1,6.436-11.2,34.693,34.693,0,0,1,11.155-8.437,36.326,36.326,0,0,1,16.207-3.337,37.678,37.678,0,0,1,16.542,3.385,36.494,36.494,0,0,1,11.583,8.532,34.465,34.465,0,0,1,6.77,11.2,33.551,33.551,0,0,1,2.192,11.393,29.99,29.99,0,0,1-1,7.436,38.231,38.231,0,0,1-2.956,7.771,35.33,35.33,0,0,1-5.006,7.341,33.788,33.788,0,0,1-7.2,6.149,36.941,36.941,0,0,1-9.343,4.243,39.9,39.9,0,0,1-11.584,1.573,35.889,35.889,0,0,1-16.207-3.385,34.869,34.869,0,0,1-11.155-8.533,33.946,33.946,0,0,1-6.436-11.2,35.577,35.577,0,0,1-2.05-11.393A36.258,36.258,0,0,1,301.763,227.146Zm9.343,23.787a29.471,29.471,0,0,0,5.626,9.582,25.5,25.5,0,0,0,8.437,6.245A24.975,24.975,0,0,0,335.752,269a25.717,25.717,0,0,0,10.63-2.24,27.161,27.161,0,0,0,8.771-6.245,29.65,29.65,0,0,0,5.959-9.582,35.316,35.316,0,0,0,0-24.5,29.661,29.661,0,0,0-5.959-9.582,27.19,27.19,0,0,0-8.771-6.245,25.748,25.748,0,0,0-10.63-2.24,25.005,25.005,0,0,0-10.583,2.24,25.531,25.531,0,0,0-8.437,6.245,29.482,29.482,0,0,0-5.626,9.582,37.649,37.649,0,0,0,0,24.5Z" stroke="#201600" stroke-miterlimit="10" stroke-width="0.1"/>
      <path id="Контур_12" data-name="Контур 12" d="M482.955,272.051h-8.1v-3.909a48.325,48.325,0,0,1-9.168,3.48,46.576,46.576,0,0,1-12.7,1.573,40.86,40.86,0,0,1-16.426-3,31.94,31.94,0,0,1-11.317-8.009,32.794,32.794,0,0,1-6.589-11.345,40.55,40.55,0,0,1-2.148-13.109,34.627,34.627,0,0,1,2.765-14.159,29.539,29.539,0,0,1,7.723-10.534,34.563,34.563,0,0,1,11.774-6.579,46.643,46.643,0,0,1,14.921-2.288,42.488,42.488,0,0,1,12.251,1.573,34.324,34.324,0,0,1,8.724,3.861,22.643,22.643,0,0,1,5.577,4.91,20.748,20.748,0,0,1,2.908,4.72h-6.865a9.356,9.356,0,0,0-2.526-3.957,19.12,19.12,0,0,0-5.005-3.48,33.186,33.186,0,0,0-6.961-2.479,35.363,35.363,0,0,0-8.389-.953,29.841,29.841,0,0,0-11.87,2.193,23.915,23.915,0,0,0-8.629,6.2,26.316,26.316,0,0,0-5.291,9.534,39.639,39.639,0,0,0-1.763,12.108,38.44,38.44,0,0,0,1.862,12.251,26.344,26.344,0,0,0,5.589,9.63,25.54,25.54,0,0,0,9.361,6.34,34.9,34.9,0,0,0,13.182,2.288,35.841,35.841,0,0,0,10.221-1.335,34.233,34.233,0,0,0,8.789-4.1V246.214H464.173V242.3h18.782Z" stroke="#201600" stroke-miterlimit="10" stroke-width="0.1"/>
      <path id="Контур_13" data-name="Контур 13" d="M495.491,227.146a33.362,33.362,0,0,1,6.436-11.2,34.693,34.693,0,0,1,11.155-8.437,36.326,36.326,0,0,1,16.207-3.337,37.678,37.678,0,0,1,16.542,3.385,36.493,36.493,0,0,1,11.583,8.532,34.465,34.465,0,0,1,6.77,11.2,33.551,33.551,0,0,1,2.192,11.393,29.944,29.944,0,0,1-1,7.436,38.167,38.167,0,0,1-2.955,7.771,35.33,35.33,0,0,1-5.006,7.341,33.788,33.788,0,0,1-7.2,6.149,36.941,36.941,0,0,1-9.343,4.243,39.9,39.9,0,0,1-11.584,1.573,35.889,35.889,0,0,1-16.207-3.385,34.869,34.869,0,0,1-11.155-8.533,33.947,33.947,0,0,1-6.436-11.2,35.577,35.577,0,0,1-2.05-11.393A36.258,36.258,0,0,1,495.491,227.146Zm9.343,23.787a29.471,29.471,0,0,0,5.626,9.582,25.5,25.5,0,0,0,8.437,6.245A24.976,24.976,0,0,0,529.48,269a25.717,25.717,0,0,0,10.63-2.24,27.16,27.16,0,0,0,8.771-6.245,29.649,29.649,0,0,0,5.959-9.582,35.316,35.316,0,0,0,0-24.5,29.66,29.66,0,0,0-5.959-9.582,27.189,27.189,0,0,0-8.771-6.245,25.748,25.748,0,0,0-10.63-2.24A25.006,25.006,0,0,0,518.9,210.6a25.531,25.531,0,0,0-8.437,6.245,29.481,29.481,0,0,0-5.626,9.582,37.649,37.649,0,0,0,0,24.5Z" stroke="#201600" stroke-miterlimit="10" stroke-width="0.1"/>
    </g>
    <g id="Сгруппировать_4" data-name="Сгруппировать 4">
      <path id="Контур_14" data-name="Контур 14" d="M26.595,511.248H3.968V337.19H26.595v76.089H130.78V337.19h22.627V511.248H130.78V424.716H26.595Z"/>
      <path id="Контур_15" data-name="Контур 15" d="M201.021,394.133a87.015,87.015,0,0,1,16.785-29.218A90.541,90.541,0,0,1,246.9,342.909q17.652-8.7,42.269-8.7,24.863,0,43.143,8.827a95.194,95.194,0,0,1,30.21,22.254,89.91,89.91,0,0,1,17.655,29.218q5.718,15.793,5.719,29.714a78.18,78.18,0,0,1-2.61,19.394,99.6,99.6,0,0,1-7.708,20.265,92.247,92.247,0,0,1-13.056,19.148,88.307,88.307,0,0,1-18.772,16.037,96.362,96.362,0,0,1-24.369,11.065,104.074,104.074,0,0,1-30.212,4.1q-24.615,0-42.269-8.828a90.986,90.986,0,0,1-29.093-22.254,88.578,88.578,0,0,1-16.785-29.216,92.777,92.777,0,0,1-5.346-29.714A94.54,94.54,0,0,1,201.021,394.133Zm24.368,62.038a76.855,76.855,0,0,0,14.671,24.99,66.518,66.518,0,0,0,22.006,16.287,65.139,65.139,0,0,0,27.6,5.844,67.086,67.086,0,0,0,27.725-5.844,70.862,70.862,0,0,0,22.876-16.287,77.372,77.372,0,0,0,15.541-24.99,92.117,92.117,0,0,0,0-63.9,77.394,77.394,0,0,0-15.541-24.99,70.923,70.923,0,0,0-22.876-16.287,67.148,67.148,0,0,0-27.725-5.842,65.2,65.2,0,0,0-27.6,5.842,66.574,66.574,0,0,0-22.006,16.287,76.876,76.876,0,0,0-14.671,24.99,98.158,98.158,0,0,0,0,63.9Z"/>
      <path id="Контур_16" data-name="Контур 16" d="M524.89,486.632h.994L606.449,337.19H623.6V511.248H600.978V370.261h-.994L521.41,514.232h-4.476L440.1,369.266H439.1V511.248H428.165V337.19h16.908Z"/>
      <path id="Контур_17" data-name="Контур 17" d="M795.671,337.19v13.677H705.907v62.412H782.99v11.437H705.907v72.855h89.764v13.677H683.28V337.19Z"/>
    </g>
  </g>
</svg>
